# xmcd CD database file generated by Grip 3.2.0
# 
# Track frame offsets:
#       150
#       15826
#       41062
#       58287
#       74254
#       93680
#       112802
#       129090
#       143844
#       159678
#       177976
#       194869
#       208099
#       224324
# 
# Disc length: 3224 seconds
# 
# Revision: 1
# Processed by: cddbd v1.5.2PL0 Copyright (c) Steve Scherf et al.
# Submitted via: Grip 3.2.0
# 
DISCID=d10c960e
DTITLE=The Craig Wollard Band - Main Street People
DYEAR=2009
DGENRE=Other
TTITLE0=Your Love is Amazing
TTITLE1=A Soulful Kind of Love
TTITLE2=I'm in Love With the Girl Next Door
TTITLE3=Love Sweet Love
TTITLE4=No More Cloudy Days (Remix)
TTITLE5=Impossible
TTITLE6=Just Got Started Loving You
TTITLE7=Who's Cheating Who
TTITLE8=Hound Dog
TTITLE9=Somewhere Somebody
TTITLE10=Beachaholic
TTITLE11=Thank You Pretty Baby
TTITLE12=Main Street People
TTITLE13=Farewell My Summer Love
EXTD=
EXTT0=
EXTT1=
EXTT2=
EXTT3=
EXTT4=
EXTT5=
EXTT6=
EXTT7=
EXTT8=
EXTT9=
EXTT10=
EXTT11=
EXTT12=
EXTT13=
PLAYORDER=
